<?xml version="1.0" encoding="UTF-8"?>
<svg id="Layer_2" xmlns="http://www.w3.org/2000/svg" viewBox="0 0 152.47 180.8">
  <defs>
    <style>
      .cls-1 {
        fill: #a96a13;
      }

      .cls-1, .cls-2 {
        stroke: #a96a13;
      }

      .cls-1, .cls-2, .cls-3, .cls-4, .cls-5 {
        stroke-miterlimit: 10;
      }

      .cls-1, .cls-2, .cls-3, .cls-5 {
        stroke-width: .5px;
      }

      .cls-2 {
        fill: #f1ab4a;
      }

      .cls-3 {
        fill: #abcd84;
      }

      .cls-3, .cls-4 {
        stroke: #439630;
      }

      .cls-4 {
        stroke-width: .75px;
      }

      .cls-4, .cls-5 {
        fill: none;
      }

      .cls-5 {
        stroke: #cbebb2;
      }
    </style>
  </defs>
  <g>
    <g>
      <path class="cls-2" d="M57.09,62.66c.43-.48,2.72-3.03,6.34-3.26,3.78-.24,6.46,2.21,7.03,2.77,3.34,3.24,3.33,8.14,3.24,12.71-.24,13.56-.3,20.34-.55,23.09-.91,9.8-1.52,19.62-2.34,29.43,0,0-.86,10.25-1.77,21.48-.61,7.49-1.47,18.42-2.47,31.91-1.64-17.27-3.46-29.23-4.88-37.16-.55-3.08-1.93-10.53-2.94-20.76-.53-5.36-.35-5.4-.94-12.94-2.01-25.83-2.51-30.84-2.51-30.84-.78-4.43-2.3-11.89,1.77-16.43Z"/>
      <line class="cls-1" x1="54.41" y1="69.83" x2="58.95" y2="69.56"/>
      <line class="cls-1" x1="71.63" y1="72.79" x2="67.87" y2="73.01"/>
      <line class="cls-1" x1="59.44" y1="81.43" x2="68.13" y2="80.92"/>
      <line class="cls-1" x1="73.41" y1="83" x2="71.23" y2="83.12"/>
      <line class="cls-1" x1="56.07" y1="88.53" x2="61.42" y2="88.25"/>
      <line class="cls-1" x1="71.24" y1="93.43" x2="66.89" y2="93.68"/>
      <line class="cls-1" x1="61.31" y1="99.95" x2="63.48" y2="99.82"/>
      <line class="cls-1" x1="72.31" y1="108.64" x2="65.8" y2="109"/>
      <line class="cls-1" x1="61.02" y1="115.42" x2="63.19" y2="115.3"/>
      <line class="cls-1" x1="59.16" y1="121.08" x2="63.51" y2="120.83"/>
      <line class="cls-1" x1="69.61" y1="123.45" x2="67.04" y2="123.6"/>
      <line class="cls-1" x1="59.68" y1="130.77" x2="61.11" y2="130.68"/>
      <line class="cls-1" x1="67.9" y1="135.04" x2="64.94" y2="135.22"/>
      <line class="cls-1" x1="63.29" y1="144.43" x2="65.46" y2="144.3"/>
      <line class="cls-1" x1="69.11" y1="147.68" x2="66.46" y2="147.81"/>
      <line class="cls-1" x1="63.45" y1="154.13" x2="66.02" y2="153.98"/>
      <line class="cls-1" x1="66.43" y1="157.52" x2="67.61" y2="157.46"/>
      <line class="cls-1" x1="67.66" y1="165.18" x2="65.69" y2="165.3"/>
      <line class="cls-1" x1="65.45" y1="168.08" x2="65.85" y2="168.06"/>
      <line class="cls-1" x1="66.68" y1="172.18" x2="65.89" y2="172.22"/>
    </g>
    <path class="cls-3" d="M62.36,61.79c1.55.56,3.03.16,4-.24.58-2.25,1.8-5.94,4.49-9.53,1.07-1.43,5.08-6.62,11.56-8.14,6.17-1.45,6.62,1.05,12.33-1.15.62-.24,5.65-2.65,5.88-6.79.22-4.12.56-4.61,1.54-6.33,1.42-2.5,6.81.99,11.13-3.69,3.66-3.96,2.9-14.54-1.44-18.02-4.89-3.93-13.36,1.95-22.04,7.97-4.89,3.39-10.19,7.07-15.2,14.4-6.49,9.51-8.57,19.42-9.32,24.91,4.43-28.49,4.31-34.25,2.85-36.8-.78-1.36-2.18-1.48-4.22-3.37-3.49-3.24,4.17-11.92-3.14-14.5-2.81-.99-6.94,3.36-9.2,9.61-3.79,10.47-2.25,29.87,11.01,43.61-5.28-6.48-10.88-12.9-14.42-16.24-15.81-14.89-25.86-16.97-28.3-17.61-5.64-1.48-13.96-3.76-17.63.06-4.14,4.3-.49,12.86,2.92,16.53,3.77,4.06,7.45.36,14.09,4.99,4.45,3.1,6.09,5.61,9.84,6.85,5.53,1.83,6.52-2.95,11.13-.67,2.94,1.45,3.39,3.03,7.16,5.81,4.17,3.08,7.25.24,10.7,3.78,1.78,1.83,2.14,3.79,4.29,4.57Z"/>
    <path class="cls-5" d="M.44,23.77c10.39,3.52,19.38,6.26,25.88,9.41,24.84,12.01,31.95,17.34,36.69,23.36,1.29,1.64.98,4.35.93,5.49.32-2.94.2-7.11-.73-12.05-1.77-9.45-3.6-10.86-5.18-20.1-.88-5.15-2-12.19.35-20.44,1.02-3.56,2.61-6.49,3.66-8.35"/>
    <path class="cls-5" d="M112.69,8.71c-3.72,2.23-8.77,5.44-14.52,9.64-6.86,5.01-11.74,8.57-17.36,14.52-6,6.35-9.13,13.04-11.45,17.14-1.98,3.48-5.28,7.71-5.34,10.03"/>
    <path class="cls-5" d="M96.58,19.53c.75-.88,1.02-1.63,1.14-2.15.35-1.59-.35-2.52-.27-4.54.04-1.06.26-1.85.43-2.36"/>
    <path class="cls-5" d="M99.12,17.65c.76-.2,2.01-.35,3.55-.37,3.06-.03,4.6.93,8.22,1.49,1.05.16,2.65.35,4.67.33"/>
    <path class="cls-5" d="M94.96,20.71c.69-.3,1.95-.74,3.5-.8,4.25-.14,6.21,2.83,10.91,3.5,1.14.16,3.14.26,5.51-.33"/>
    <path class="cls-5" d="M107.27,18c1.3.37,2.24.85,2.85,1.22,1.34.8,1.86,1.47,3.08,1.8.89.24,1.68.16,2.18.07"/>
    <path class="cls-5" d="M93.67,21.66c.33-.42.74-1.07.82-1.91.14-1.43-.8-2.16-1.03-3.9-.08-.6-.1-1.54.24-2.65"/>
    <path class="cls-5" d="M91.24,14.9c-.05.37-.04.9.26,1.27.33.41.78.37,1.43.71.35.18.81.5,1.26,1.11"/>
    <path class="cls-5" d="M107.69,11.83c.71-.53.79-1.05.9-1.44.2-.68-.04-1.11.08-1.99.09-.71.35-1.27.57-1.64"/>
    <path class="cls-5" d="M106.09,12.89c.62-.81.85-1.51.94-2.01.15-.8-.02-1.23.07-2.18.08-.89.32-1.59.51-2.04"/>
    <path class="cls-5" d="M105.44,13.29c1.17-.77,2.17-1.03,2.86-1.1,1.41-.14,2.16.33,3.78.17,1.01-.1,1.81-.39,2.31-.61"/>
    <path class="cls-5" d="M90.56,24.04c.59-.05,1.54-.06,2.61.15,2.31.47,3.44,1.65,5.31,2.65,1.17.63,2.95,1.5,5.46,1.79"/>
    <path class="cls-5" d="M111,27.68c-1.47.18-3.78.3-5.72.15-4.09-.32-7.33-1.56-9.47-2.6"/>
    <path class="cls-5" d="M89.11,25.18c.29-.53.6-1.35.61-2.36.02-1.39-.62-2.03-.81-3.52-.09-.69-.1-1.76.32-3.05"/>
    <path class="cls-5" d="M88.21,25.91c.75-.15,1.82-.27,3.08-.01,2.17.46,3.1,1.72,5.13,2.86,1.14.64,2.84,1.38,5.25,1.67"/>
    <path class="cls-5" d="M86.2,27.61c.08-.64.13-1.63-.13-2.79-.34-1.53-.93-2.09-.99-3.31-.03-.65.08-1.67.85-2.9"/>
    <path class="cls-5" d="M85.39,28.37c.8-.07,2.09-.09,3.48.25,2.41.58,3.54,1.78,5.52,2.84,1.34.72,3.57,1.52,6.45,1.79"/>
    <path class="cls-5" d="M100.31,37.44c-2.34-.35-3.62-1.38-4.49-2.11-1.73-1.46-2.08-3.07-4.47-5.08-.82-.7-1.58-1.24-2.07-1.53"/>
    <path class="cls-5" d="M82.46,31.19c.23-1.47.16-2.61.02-3.37-.31-1.75-.95-2.57-.84-4.11.07-.97.41-1.69.66-2.17"/>
    <path class="cls-5" d="M84.48,19.74c-.9,1.07-1.32,2.06-1.52,2.7-.28.87-.33,1.6-.43,2.8-.08,1.02-.08,1.88-.07,2.47"/>
    <path class="cls-5" d="M79.68,24.02c.27.58.6.93.86,1.14.3.25.55.34,1.04.73.28.22.49.42.63.56"/>
    <path class="cls-5" d="M81.29,32.4c-.07-.26-.18-.65-.38-1.12-.57-1.33-1.26-1.9-1.75-2.67-.4-.64-.83-1.51-.79-3.16"/>
    <path class="cls-5" d="M79.67,34.13c.88-.25,2.21-.56,3.97-.24,3.55.65,4.73,3.32,8.84,5.22,1.11.51,3.12,1.18,5.64,1.44"/>
    <path class="cls-5" d="M90.97,43.67c-1.7-.75-2.41-1.79-2.73-2.52-.57-1.29-.07-2.25-.63-3.93-.38-1.14-1.05-1.92-1.55-2.44"/>
    <path class="cls-5" d="M76.94,37.46c.11-1.36-.16-2.33-.4-2.95-.56-1.47-1.43-1.98-1.58-3.27-.11-.93.21-1.65.47-2.14"/>
    <path class="cls-5" d="M76.38,38.29c.67.02,1.63.13,2.62.64,1.28.65,1.73,1.51,2.72,2.41.79.72,2.04,1.57,4.05,2.09"/>
    <path class="cls-5" d="M75.01,40.23c.06-.59.21-1.55-.06-2.65-.43-1.73-1.26-2.36-1.42-3.88-.06-.58-.03-1.35.44-2.48"/>
    <path class="cls-5" d="M71.88,34.69c0,.66.21,1.02.39,1.21.35.38.76.37,1.43.71.33.16.77.44,1.24.92"/>
    <path class="cls-5" d="M73.42,42.76c.45-.1,1.22-.2,2.04-.05,1.41.25,1.93,1.01,3.26,1.39.6.17,1.52.31,2.78.03"/>
    <path class="cls-5" d="M72.7,43.98c-.03-.35-.05-.88-.23-1.49-.46-1.55-1.21-2.09-1.57-3.08-.27-.73-.38-1.84.38-3.56"/>
    <path class="cls-5" d="M71.26,46.53c.2-.08.61-.2,1.03-.26,1.04-.15,1.61.17,2.79.23.36.02.9.02,1.58-.1"/>
    <path class="cls-5" d="M74.96,47.69c-.17-.05-.4-.16-.62-.36-.22-.2-.26-.36-.43-.57-.14-.17-.44-.36-.84-.53"/>
    <path class="cls-5" d="M70.91,47.19c-.02-.43-.16-1.08-.45-1.81-.52-1.31-1.26-1.64-1.55-2.68-.14-.51-.16-1.23.3-2.34"/>
    <path class="cls-5" d="M69.79,49.19c.6-.16.98-.13,1.29-.08.62.11.89.36,1.41.31.43-.04.83-.28,1.04-.46"/>
    <path class="cls-5" d="M68.8,51c-.09-.31-.22-.78-.46-1.32-.42-.96-.71-1.25-.91-1.93-.12-.4-.27-1.08-.16-1.87"/>
    <path class="cls-5" d="M67.56,52.93c.18-.15.54-.37.95-.49.58-.17.92-.02,1.38-.08.39-.06.94-.28,1.54-1.08"/>
    <path class="cls-5" d="M67.06,53.72c.18-.22.44-.51.89-.65.61-.19.98.06,1.58-.1.28-.08.77-.26,1.19-.78"/>
    <path class="cls-5" d="M66.53,54.54c.2-.62.1-1.08.04-1.39-.11-.55-.36-.77-.48-1.36-.1-.5-.08-.92-.01-1.21"/>
    <path class="cls-5" d="M63.95,55.69c-.05-.62,0-.75.29-1.8.26-.97.61-1.44,1.04-2.44.32-.73.72-1.81.99-3.23"/>
    <path class="cls-5" d="M63.86,54.31c-.25-.86-.62-1.4-.9-1.73-.74-.88-1.46-1.02-2.7-2.02-.61-.49-1.05-.95-1.3-1.23"/>
    <path class="cls-5" d="M63.5,51.56c.35-.81.1-.41.52-1.22.35-.68.95-.82,1.31-1.27.51-.63,1.1-1.64,1.35-3.27"/>
    <path class="cls-5" d="M67.13,42.63c-.17,1.33-.49,2.91-1.12,4.61-.27.74-.57,1.42-.87,2.03"/>
    <path class="cls-5" d="M63.23,50.38c-.35-.33-.9-.81-1.66-1.29-1.4-.88-2.2-.92-3.27-1.59-.64-.4-1.5-1.09-2.29-2.39"/>
    <path class="cls-5" d="M62.9,48.22c-.42-.42-1.11-1.01-2.07-1.46-1.35-.64-2.12-.48-3.23-.99-.7-.33-1.65-.98-2.5-2.41"/>
    <path class="cls-5" d="M53.74,40.53c.38.68.86,1.43,1.49,2.2,1.43,1.74,3,2.84,4.18,3.51"/>
    <path class="cls-5" d="M62.63,47.05c.04-.4.14-1.2.49-1.81.86-1.53,2.29-1.6,3.39-2.98.4-.51.87-1.32,1.03-2.64"/>
    <path class="cls-5" d="M62.11,44.9c-.23-.58-1.31-1.6-2.32-2.24-1.99-1.25-3.16-1.22-4.7-2.29-.73-.51-1.69-1.37-2.54-2.86"/>
    <path class="cls-5" d="M61.26,42.11c.1-1.23.46-2.06.72-2.55,1.22-2.25,3.24-2.45,5.06-4.86.68-.91,1.25-1.97,1.44-2.47"/>
    <path class="cls-5" d="M68.05,35.49c-.31.2-.68.41-1.12.6-.66.28-1.27.43-1.75.5"/>
    <path class="cls-5" d="M59.64,36.92c-.37-.54-1.05-1.54-2.11-2.05-1.56-.76-2.65-.26-4.22-.94-.66-.29-1.61-.88-2.51-2.23"/>
    <path class="cls-5" d="M49.88,26.21c.21,1.02.65,2.5,1.63,4.06,1.41,2.24,3.2,3.5,4.21,4.11"/>
    <path class="cls-5" d="M60.13,38.48c0-1.09.1-2.93.7-4.8,1.17-3.64,3.18-4.94,5.04-8.43.79-1.49,1.76-3.75,2.25-6.86"/>
    <path class="cls-5" d="M69.03,24.86c-.14.2-.57.72-.93,1.05-.87.77-1.6.85-2.88,1.56-.32.18-.79.46-1.33.87"/>
    <path class="cls-5" d="M63.45,14.49c.69,2.05.77,3.64.89,4.9.17,1.72.45,4.91-.87,8.58-.52,1.43-1.13,2.54-1.59,3.27"/>
    <path class="cls-5" d="M57.55,26.91c.3-2.04.93-3.49,1.43-4.42,1.35-2.51,2.83-3.23,3.63-5.57.52-1.52.47-2.9.37-3.79"/>
    <path class="cls-5" d="M57.78,28.04c-.41-.56-1.11-1.41-2.17-2.18-1.64-1.18-2.69-1.13-3.9-2.14-.66-.56-1.51-1.56-1.99-3.45"/>
    <path class="cls-5" d="M52.67,7.54c-.84,2.81-.56,4.78-.18,6.03.65,2.13,1.81,2.92,3.11,5.56,1.05,2.13,1.55,5.03,1.76,6.24"/>
    <path class="cls-5" d="M57.02,22.01c.39-.94,1.14-2.76,2.26-4.3,1.2-1.65,1.97-2.14,2.76-3.54.53-.94,1.13-2.4,1.25-4.55"/>
    <path class="cls-5" d="M64.02,4.35c-.09,1.04-.47,2.64-.94,4.22-.62,2.11-1.32,3.22-2.96,6.72-.48,1.02-1.08,2.33-1.75,3.87"/>
    <path class="cls-5" d="M63.43,2.53c-.03,1.02-.15,2.61-.64,4.46-.8,3.06-1.96,4.4-3.3,7.73-.51,1.26-1.18,3.15-1.71,5.59"/>
    <path class="cls-5" d="M57.19,15.86c-.14-.95-.42-2.21-1.03-3.9-.66-1.83-1.15-2.42-1.41-3.68-.23-1.09-.29-2.73.6-4.95"/>
    <path class="cls-5" d="M56.36,2.23c-.37,1.01-.74,2.3-.96,3.82-.21,1.45-.22,2.74-.17,3.78"/>
    <path class="cls-5" d="M59.33.49c-.47.55-.94,1.29-1.15,2.23-.32,1.41.16,2.29.26,4.34.05,1.03-.01,1.97-.13,2.8"/>
    <path class="cls-5" d="M60.31,4.41c.29-.55.62-.88.88-1.08.4-.31.65-.34.95-.65.35-.36.47-.81.52-1.14"/>
    <path class="cls-5" d="M63.01,56.54c-.34-.27-.61-.31-1.42-.51-1.06-.26-1.69.02-3.17,0-.5-.01-1.26-.06-2.2-.26"/>
    <path class="cls-5" d="M60.94,54.1c-.35-.31-.82-.81-1.14-1.53-.32-.72-.28-1.16-.51-1.95-.16-.54-.47-1.28-1.12-2.11"/>
    <path class="cls-5" d="M57.48,50.97c-.46.08-1.21.23-2.11.48-2.37.67-3.16,1.34-4.85,1.68-.75.15-1.89.28-3.39.05"/>
    <path class="cls-5" d="M44.14,50.73c.72.5,1.71,1.05,2.95,1.42,3.31.99,6.4,0,7.5-.45"/>
    <path class="cls-5" d="M49.29,54.53c.51-.22,1.07-.5,1.65-.84.74-.43,1.56-1.09,2.09-1.51"/>
    <path class="cls-5" d="M55.77,49.59c-.44-.34-1.1-.94-1.62-1.83-.77-1.31-.66-2.26-1.23-3.89-.25-.73-.7-1.79-1.56-2.99"/>
    <path class="cls-5" d="M52.13,47.09c-.19-.28-.89-1.11-1.09-1.72-.58-1.68-.03-2.69-.46-4.33-.13-.51-.4-1.23-1.01-2.04"/>
    <path class="cls-5" d="M51.3,46.54c-.4-.1-1.45-.37-2.2-.26-1.96.29-2.6,1.74-4.42,2.25-.66.19-1.68.3-3.09-.14"/>
    <path class="cls-5" d="M43.1,49.71c2.18.17,3.13-.37,3.59-.91.33-.39.55-.96,1.29-1.66.44-.42.86-.69,1.14-.86"/>
    <path class="cls-5" d="M49.04,45.09c-.42-.5-1.25-1.52-1.75-2.67-.89-2.08-.58-3.37-1.1-5.09-.34-1.13-1.11-2.71-3.12-4.36"/>
    <path class="cls-5" d="M47.14,43.97c-.57,0-1.39.06-2.31.39-1.64.59-2.13,1.54-3.44,2.19-.81.4-2.06.75-3.94.44"/>
    <path class="cls-5" d="M28.32,48.04c.77.03,1.98.04,3.44-.12.85-.1,1.31-.2,5.87-1.34,2.35-.59,3.3-.83,4.68-1.27.88-.28,1.42-.52,1.94-.71"/>
    <path class="cls-5" d="M45.55,43.12c-.47-.48-1.35-1.36-1.93-2.46-1.36-2.57-.84-4.33-1.8-6.83-.41-1.06-1.19-2.54-2.86-4.08"/>
    <path class="cls-5" d="M41.36,31.53c.85.94,1.25,1.82,1.46,2.44.42,1.27.23,2.09.46,4.33.1,1.01.24,1.83.34,2.36"/>
    <path class="cls-5" d="M34.2,26.36c.85.74,2.04,1.81,3.39,3.17,1.4,1.4,2.11,2.1,2.76,3.01.78,1.08,1.78,2.29,2.28,5.02"/>
    <path class="cls-5" d="M34.1,37c-.18-.25-.46-.69-.69-1.27-.93-2.35.16-4.1,0-6.54-.06-.98-.35-2.45-1.49-4.21"/>
    <path class="cls-5" d="M37.37,38.69c-.73-.04-1.85-.04-3.18.16-4.42.68-5.98,2.88-9.51,3.35-1.25.17-3.09.16-5.45-.75"/>
    <path class="cls-5" d="M14.38,39.05c1.87.63,3.46,1.04,4.64,1.31,2.53.57,4.12.92,6.19.82,1.85-.09,3.53-.52,4.51-.87"/>
    <path class="cls-5" d="M12.19,38.79c2.54.39,4.66.65,6.19.82,4.24.46,6.46.68,9.34.43,2.19-.19,3.95-.6,5.1-.9"/>
    <path class="cls-5" d="M28.15,34.06c-1.88-1.67-2.23-3.57-2.87-4.78-1.68-3.22-1.9-5.54-4.24-7.87-.89-.89-1.75-1.45-2.3-1.77"/>
    <path class="cls-5" d="M25.22,21.55c1.2,1.13,1.6,2.17,1.76,2.87.39,1.74-.82,2.83-.68,5.19.07,1.21.59,2.75.79,3.32"/>
    <path class="cls-5" d="M20.16,19.88c.44.39.98.94,1.49,1.69.43.64.71,1.24.9,1.73"/>
    <path class="cls-5" d="M23.5,31.93c-2.15-1.75-3.48-3.46-4.28-4.67-1.82-2.74-2.14-4.69-4.38-6.87-1.19-1.16-2.39-1.86-3.17-2.26"/>
    <path class="cls-5" d="M8.48,17.86c1.3.5,2.9,1.26,4.57,2.45,2.61,1.85,4.06,3.56,5.06,5.05"/>
    <path class="cls-5" d="M19.81,30.4c-1.8.19-3.31.52-4.51.87-3.77,1.07-5.15,2.39-8.16,2.67-1.68.16-3.13-.08-4.18-.34"/>
    <path class="cls-5" d="M6.96,37.92c1.43-.69,2.21-1.52,2.66-2.15.58-.81.7-1.41,1.45-2.27.67-.77,1.59-1.24,2.09-1.51"/>
    <path class="cls-5" d="M.62,27.79c1.29.57,2.36.86,3.03,1.01,3.33.74,5.26.01,9.92.19,1.31.05,2.36.16,2.95.22"/>
    <path class="cls-5" d="M2.87,19.13c2.13.74,3.48,1.74,4.31,2.52,1.48,1.37,2.06,2.68,4.47,5.08.58.58.94,1.13,1.47,1.3"/>
    <path class="cls-5" d="M.86,22.3c.56.23,1.31.6,2.08,1.19.77.59,1.31,1.21,1.67,1.69"/>
    <path class="cls-4" d="M62.36,61.79c1.55.56,3.03.16,4-.24.58-2.25,1.8-5.94,4.49-9.53,1.07-1.43,5.08-6.62,11.56-8.14,6.17-1.45,6.62,1.05,12.33-1.15.62-.24,5.65-2.65,5.88-6.79.22-4.12.56-4.61,1.54-6.33,1.42-2.5,6.81.99,11.13-3.69,3.66-3.96,2.9-14.54-1.44-18.02-4.89-3.93-13.36,1.95-22.04,7.97-4.89,3.39-10.19,7.07-15.2,14.4-6.49,9.51-8.57,19.42-9.32,24.91,4.43-28.49,4.31-34.25,2.85-36.8-.78-1.36-2.18-1.48-4.22-3.37-3.49-3.24,4.17-11.92-3.14-14.5-2.81-.99-6.94,3.36-9.2,9.61-3.79,10.47-2.25,29.87,11.01,43.61-5.28-6.48-10.88-12.9-14.42-16.24-15.81-14.89-25.86-16.97-28.3-17.61-5.64-1.48-13.96-3.76-17.63.06-4.14,4.3-.49,12.86,2.92,16.53,3.77,4.06,7.45.36,14.09,4.99,4.45,3.1,6.09,5.61,9.84,6.85,5.53,1.83,6.52-2.95,11.13-.67,2.94,1.45,3.39,3.03,7.16,5.81,4.17,3.08,7.25.24,10.7,3.78,1.78,1.83,2.14,3.79,4.29,4.57Z"/>
  </g>
  <g>
    <g>
      <path class="cls-2" d="M85.74,77.83c.56-.16,3.59-1.03,6.62.54,3.17,1.63,4.22,4.81,4.43,5.51,1.22,4.1-1.04,7.86-3.19,11.33-6.4,10.32-9.55,15.51-11.02,17.5-5.23,7.1-10.21,14.37-15.37,21.52,0,0-5.39,7.47-11.26,15.67-3.92,5.47-9.63,13.47-16.61,23.36,6.58-14.07,10.58-24.15,13.06-30.93.96-2.63,3.26-9.03,7.13-17.38,2.03-4.38,2.19-4.33,5.16-10.4,10.21-20.84,12.09-24.93,12.09-24.93,1.4-3.78,3.59-10.25,8.96-11.79Z"/>
      <line class="cls-2" x1="94.63" y1="92.81" x2="87.66" y2="88.88"/>
      <line class="cls-2" x1="76.91" y1="94.64" x2="81.78" y2="97.38"/>
      <line class="cls-2" x1="84.22" y1="103.66" x2="81.62" y2="102.2"/>
      <line class="cls-2" x1="71.92" y1="99.87" x2="76.11" y2="102.15"/>
      <line class="cls-2" x1="79.88" y1="111.4" x2="73.88" y2="108.01"/>
      <line class="cls-2" x1="79" y1="117.7" x2="75.3" y2="115.73"/>
      <line class="cls-2" x1="68.72" y1="115.26" x2="70.34" y2="116.18"/>
      <line class="cls-2" x1="62.91" y1="118.16" x2="65.29" y2="119.43"/>
      <line class="cls-2" x1="64.89" y1="122.05" x2="70.72" y2="125.35"/>
      <line class="cls-2" x1="70.43" y1="129.79" x2="67.59" y2="128.26"/>
      <line class="cls-2" x1="58.81" y1="129.4" x2="62.22" y2="131.33"/>
      <line class="cls-2" x1="60.91" y1="133.64" x2="63.18" y2="134.93"/>
      <line class="cls-2" x1="54.19" y1="138.07" x2="58.57" y2="140.45"/>
      <line class="cls-2" x1="58.5" y1="145.5" x2="55.58" y2="143.85"/>
      <line class="cls-2" x1="51.22" y1="148.92" x2="53.49" y2="150.2"/>
      <line class="cls-2" x1="51.5" y1="156.18" x2="49.31" y2="154.96"/>
      <line class="cls-2" x1="47.17" y1="157.62" x2="48.14" y2="158.17"/>
      <line class="cls-2" x1="41.61" y1="169.96" x2="40.63" y2="169.41"/>
    </g>
    <path class="cls-3" d="M89.46,79.62c.84,1.63,1.43,2.03,3.19,2.29,4.26.62,5.81-5.3,11.24-6.08,6.22-.89,6.58.38,8.1.86,2.55.8,4.18,3.6,8.13,6.03,2.55,1.57,6.24,4.21,11.66,3.37.61-.09,1.18-.39,1.62-.84,3.13-3.2,1.32-5.1,3.32-5.97,4.03-1.74,4.92,2.98,8.49,2.43,2.64-.41,7.91-1.05,6.72-4.2-1.67-4.42-5.92-6.4-9.32-8.07-1.48-.73-4.08-2.15-12.94-2.53-7.97-.34-6.91.05-15.01,1.43-4.47.76-6.93,1.74-12.27,4.14-1.43.64-2.54,1.39-3.26,1.93,1.66-3.42,7.51-6.6,12.67-10.41,5.36-3.96,4.81-5.84,7.11-10.47,2.68-5.4,3.3-15.88-.37-19.5-3.81-3.76-9.15,4.32-10.56,4.9-1.41.58-6.32,2.66-7.59,7.95-.72,3.01.62,5.34-1.04,7.02-1.37,1.39-2.91.43-4.26,1.8-1.54,1.56-.73,3.98-.85,7.81-.06,2-.4,4.97-1.75,8.63-.64-2.99-1.35-7.64-.92-13.31.6-7.93,2.82-9.92,2.4-16.1-.14-2.11-.65-9.64-6.38-14.66-.84-.73-8.76-7.48-15.66-3.42-4.32,2.54-6.9,8.55-5.6,12.69,1.45,4.62,6.96,4.52,8.09,9.82.68,3.16-1.02,4.46.25,6.65,1.77,3.05,5.77,1.7,7.55,4.8,1.27,2.21-.53,3.29.51,6.57,1.3,4.12,4.59,3.92,5.38,7.81.52,2.53.35,4.65,1.35,6.61Z"/>
    <path class="cls-5" d="M117.36,33.3c-.2,1.23-.51,2.86-.99,4.75-.11.44-1.33,5.1-3.4,9.46-1.56,3.29-2.51,4.07-8.61,12.16-6.38,8.46-8.01,11.13-8.91,12.68-2.09,3.59-3.52,6.72-4.43,8.87-.66-2.62-1.55-6.69-2.14-11.74-.77-6.6-.22-8.13-.84-12.81-1.05-8-4-13.88-5.87-17.54-3.31-6.46-7.19-11.23-10.27-14.47"/>
    <path class="cls-5" d="M152.01,78.93c-2.56-1.5-6.18-3.34-10.74-4.83-1.43-.47-8.55-2.73-18.27-2.77-6.81-.03-11.67,1.05-16.79,2.19-4.1.91-6.58,1.76-9.14,3.18-2.74,1.52-4.73,3.24-6.03,4.52"/>
    <path class="cls-5" d="M95.31,77.75c.79-.35,1.45-.46,1.89-.51.76-.08,1.2.03,2.31-.04.54-.03.98-.09,1.25-.14"/>
    <path class="cls-5" d="M98.75,75.83c1-.35,1.73-.8,2.24-1.2.89-.69,1.14-1.22,2.07-2,.77-.65,1.52-1.06,2.12-1.33"/>
    <path class="cls-5" d="M104.31,74.03c.46.06.76.2.96.32.39.25.5.49.93.76.31.19.6.28.79.33"/>
    <path class="cls-5" d="M107.53,73.28c.76.04,1.21.29,1.49.5.53.42.58.88,1.15,1.57.42.51.86.85,1.16,1.04"/>
    <path class="cls-5" d="M106.2,73.52c.51-.08.97-.26,1.28-.63.45-.53.28-1.09.65-1.91.25-.56.63-.98,1.01-1.29"/>
    <path class="cls-5" d="M112.21,72.32c.81-.08,1.98-.32,3.08-1.09,1.01-.7,1.27-1.35,2.17-2.18.71-.65,1.85-1.44,3.72-1.91"/>
    <path class="cls-5" d="M126.28,66.86c-1.93.05-4.85.43-7.84,2.07-.84.46-1.58.97-2.21,1.46"/>
    <path class="cls-5" d="M115.16,71.84c.77.12,2.06.4,3.48,1.09,3.79,1.85,4.8,4.84,8.36,8.47,1.12,1.15,2.95,2.82,5.64,4.48"/>
    <path class="cls-5" d="M126.92,85.97c-1.56-.84-2.31-1.82-2.7-2.51-1.13-2.01-.5-3.82-1.89-7.03-.25-.57-.48-1.01-.63-1.28"/>
    <path class="cls-5" d="M134.58,83.72c-1.02-.09-2.29-.29-3.68-.75-2.22-.73-3.86-1.81-4.93-2.64"/>
    <path class="cls-5" d="M124.05,71.4c2.05-.08,3.26-.72,3.98-1.28.87-.68,1.19-1.37,2.34-2.08.97-.6,1.91-.84,2.53-.94"/>
    <path class="cls-5" d="M127.22,71.49c1.53-.22,2.55-.73,3.18-1.14,1.11-.71,1.41-1.34,2.51-1.98,1.13-.65,2.25-.82,2.98-.87"/>
    <path class="cls-5" d="M139.23,68.19c-1.17-.17-3.08-.29-5.26.34-1.11.32-2.02.76-2.73,1.17"/>
    <path class="cls-5" d="M123.44,71.35c.84,0,2.12.09,3.51.65,2.96,1.19,3.65,3.38,6.78,5.28.89.54,2.26,1.23,4.17,1.67"/>
    <path class="cls-5" d="M128.95,71.66c.89.12,2.24.4,3.71,1.12,2.68,1.31,3.73,3.09,5.65,4.86,1.36,1.26,3.56,2.87,7.03,4.05"/>
    <path class="cls-5" d="M148.22,81.18c-1.42-.11-3.44-.43-5.7-1.34-2.19-.88-3.83-2.01-4.92-2.88"/>
    <path class="cls-5" d="M137.34,72.98c1.51.32,2.72.29,3.53.21,1.57-.16,2.25-.59,3.86-.75,1.4-.14,2.56.01,3.31.16"/>
    <path class="cls-5" d="M143.87,75.05c1.35.53,2.34,1.13,3.01,1.59,1.04.71,1.62,1.31,3.06,2.22.63.4,1.18.7,1.54.89"/>
    <path class="cls-5" d="M91.69,79.65c1.15-2.16,2.4-3.03,3.36-3.42.75-.31,1.98-.6,3.47-1.66.37-.26.65-.5.84-.66"/>
    <path class="cls-5" d="M92.98,70.7c-.1.34-.25.93-.28,1.67-.05,1.4.39,2.04.33,3.39-.02.41-.09,1.05-.38,1.84"/>
    <path class="cls-5" d="M94.13,64.74c-.04,1.09.04,1.97.11,2.58.27,2.21.83,3.09.69,4.74-.08.97-.37,1.73-.57,2.18"/>
    <path class="cls-5" d="M95.83,71.74c.25-.32.68-.78,1.33-1.14,1.23-.69,2.29-.46,4.03-.65.75-.08,1.85-.26,3.17-.72"/>
    <path class="cls-5" d="M94.73,56.18c-.56,3.7-.03,6.11.61,7.66.4.99,1.1,2.34,1.16,4.32.04,1.33-.22,2.44-.45,3.16"/>
    <path class="cls-5" d="M98.47,54.6c-.99,1.6-2.25,4.17-2.59,7.49-.11,1.1-.11,2.11-.04,3"/>
    <path class="cls-5" d="M99.21,66.69c.35-.33.91-.77,1.7-1.01,1.65-.51,2.8.33,5.2.49.67.04,1.66.04,2.87-.18"/>
    <path class="cls-5" d="M101.83,63.14c.3-.3.77-.74,1.42-1.14,2.46-1.54,4.74-.97,7.88-1.39,1.29-.17,3.1-.57,5.23-1.55"/>
    <path class="cls-5" d="M114.55,61.58c-.2.07-.52.18-.92.24-1.26.21-2.1-.13-4.22-.6-.42-.09-1.05-.23-1.84-.38"/>
    <path class="cls-5" d="M103.5,60.78c.4-.87.88-2.22.85-3.85-.05-2.54-1.31-3.82-2.18-6.51-.45-1.39-.9-3.46-.72-6.23"/>
    <path class="cls-5" d="M100.11,52.44c.12.29.33.71.72,1.09.63.62,1.21.65,2.06,1.19.36.23.85.6,1.35,1.23"/>
    <path class="cls-5" d="M106.23,57.2c.59-.61,1.52-1.45,2.84-2.13,2-1.02,3.39-.91,5.67-1.52,1.25-.33,2.99-.95,4.99-2.17"/>
    <path class="cls-5" d="M118.52,54.13c-.28.12-.75.3-1.35.36-1.02.11-1.6-.18-2.99-.35-.39-.05-1-.11-1.77-.1"/>
    <path class="cls-5" d="M108.2,38.87c-.59,2.48-.72,4.51-.74,5.92-.03,2.7.37,4.14.19,7.19-.1,1.73-.33,3.13-.51,4.04"/>
    <path class="cls-5" d="M113.44,34.04c-1.95,2.99-3.94,6.89-5.15,11.69-.26,1.05-.47,2.07-.63,3.05"/>
    <path class="cls-5" d="M112.87,47.68c.23-.3.6-.74,1.13-1.17,1.5-1.23,2.76-1.2,4.38-2.04.71-.37,1.67-1.01,2.65-2.16"/>
    <path class="cls-5" d="M120.53,37.85c-.06.33-.17.85-.34,1.49-.52,2.01-.88,3.41-1.96,4.58-.34.37-.95.93-1.94,1.39"/>
    <path class="cls-5" d="M116.37,38.05c.16-.17.39-.43.67-.76.6-.72.96-1.16,1.26-1.79.13-.28.3-.69.41-1.23"/>
    <path class="cls-5" d="M90.18,77.54c.07-.51.2-1.31.4-2.28.48-2.3.88-3.08,1.07-4.63.09-.74.17-1.85,0-3.24"/>
    <path class="cls-5" d="M89.29,72.75c-.11-.09-.27-.21-.49-.35-.32-.2-.46-.24-.69-.4-.14-.1-.34-.26-.54-.52"/>
    <path class="cls-5" d="M89.08,70.84c.18-.72.43-1.24.62-1.57.49-.86.92-1.12,1.36-1.96.31-.59.44-1.12.5-1.45"/>
    <path class="cls-5" d="M88.87,69.04c-.29-.27-.76-.66-1.4-1.06-1.48-.93-2.36-.93-3.53-1.8-.38-.29-.91-.75-1.42-1.5"/>
    <path class="cls-5" d="M82.52,61.85c.11.66.36,1.66.99,2.71.96,1.61,2.27,2.46,2.93,2.83"/>
    <path class="cls-5" d="M88.59,66.9c.04-.32.13-.78.44-1.22.51-.73,1.15-.77,1.67-1.32.35-.36.71-1.01.66-2.27"/>
    <path class="cls-5" d="M88.49,64.23c-.53-.73-1.05-1.21-1.42-1.5-1.41-1.13-2.49-1.14-3.67-2.35-.45-.46-.74-.91-.9-1.21"/>
    <path class="cls-5" d="M88.45,63.17c.17-.65.46-1.63.89-2.79.61-1.63,1.14-2.56,1.63-3.63.54-1.16,1.24-2.87,1.81-5.12"/>
    <path class="cls-5" d="M88.17,57.72c-1.69-1.81-3.2-3.08-4.2-3.86-3.27-2.57-5.3-3.25-7.98-5.97-1.15-1.17-1.95-2.24-2.41-2.89"/>
    <path class="cls-5" d="M74.38,50.2c1.41,1.34,2.58,1.66,3.4,1.69.85.03,1.65-.23,2.92.08.63.15,1.11.38,1.43.55"/>
    <path class="cls-5" d="M86.77,50.42c.39-1.94.92-3.5,1.4-4.65,1.44-3.52,2.86-4.7,3.46-7.59.37-1.77.26-3.33.08-4.42"/>
    <path class="cls-5" d="M93.71,40.62c-.3.29-.77.71-1.4,1.14-.92.63-1.47.78-2.02,1.12-.65.4-1.47,1.17-2.09,2.76"/>
    <path class="cls-5" d="M88,28.47c.68,1.48,1.13,2.74,1.42,3.64.83,2.59,1.52,4.82,1.15,7.51-.19,1.38-.6,2.47-.9,3.14"/>
    <path class="cls-5" d="M85.17,45.42c-2.3-1.79-4.36-2.64-5.76-3.09-3.79-1.21-5.98-.47-9.1-2.05-2.01-1.01-3.33-2.44-4.08-3.4"/>
    <path class="cls-5" d="M70.5,41.97c1.58.63,2.61.51,3.25.28.43-.15,1.11-.5,2.16-.58.38-.03.69-.01.89,0"/>
    <path class="cls-5" d="M83.06,40.77c-.58-1.91-.75-3.49-.79-4.57-.15-3.67.95-5.4.33-8.49-.32-1.57-.93-2.78-1.39-3.54"/>
    <path class="cls-5" d="M84.5,25.91c.3,1.11.26,1.98.17,2.55-.22,1.47-.9,2.14-1.66,4.07-.41,1.05-.64,1.95-.77,2.52"/>
    <path class="cls-5" d="M79.98,35.23c-1.63-1.05-3.04-1.64-4.01-1.97-2.55-.89-4.12-.78-6.35-2.06-.99-.57-1.71-1.18-2.15-1.58"/>
    <path class="cls-5" d="M69.67,26.49c.29.86.66,1.46.92,1.84.97,1.37,1.94,1.66,3.18,3.2.44.55.75,1.04.92,1.35"/>
    <path class="cls-5" d="M74.76,23.59c.93.86,1.26,1.65,1.39,2.23.17.8-.02,1.29.11,2.58.08.77.22,1.39.34,1.79"/>
    <path class="cls-4" d="M89.45,79.58c.84,1.63,1.43,2.03,3.19,2.29,4.26.62,5.81-5.3,11.24-6.08,6.22-.89,6.58.38,8.1.86,2.55.8,4.18,3.6,8.13,6.03,2.55,1.57,6.24,4.21,11.66,3.37.61-.09,1.18-.39,1.62-.84,3.13-3.2,1.32-5.1,3.32-5.97,4.03-1.74,4.92,2.98,8.49,2.43,2.64-.41,7.91-1.05,6.72-4.2-1.67-4.42-5.92-6.4-9.32-8.07-1.48-.73-4.08-2.15-12.94-2.53-7.97-.34-6.91.05-15.01,1.43-4.47.76-6.93,1.74-12.27,4.14-1.43.64-2.54,1.39-3.26,1.93,1.66-3.42,7.51-6.6,12.67-10.41,5.36-3.96,4.81-5.84,7.11-10.47,2.68-5.4,3.3-15.88-.37-19.5-3.81-3.76-9.15,4.32-10.56,4.9-1.41.58-6.32,2.66-7.59,7.95-.72,3.01.62,5.34-1.04,7.02-1.37,1.39-2.91.43-4.26,1.8-1.54,1.56-.73,3.98-.85,7.81-.06,2-.4,4.97-1.75,8.63-.64-2.99-1.35-7.64-.92-13.31.6-7.93,2.82-9.92,2.4-16.1-.14-2.11-.65-9.64-6.38-14.66-.84-.73-8.76-7.48-15.66-3.42-4.32,2.54-6.9,8.55-5.6,12.69,1.45,4.62,6.96,4.52,8.09,9.82.68,3.16-1.02,4.46.25,6.65,1.77,3.05,5.77,1.7,7.55,4.8,1.27,2.21-.53,3.29.51,6.57,1.3,4.12,4.59,3.92,5.38,7.81.52,2.53.35,4.65,1.35,6.61Z"/>
  </g>
</svg>