<?xml version="1.0" encoding="UTF-8"?>
<svg id="Layer_1" xmlns="http://www.w3.org/2000/svg" viewBox="0 0 78.34 78.34">
  <defs>
    <style>
      .cls-1 {
        fill: #fbe0fb;
      }

      .cls-2 {
        fill: #430541;
      }
    </style>
  </defs>
  <circle class="cls-1" cx="39.17" cy="39.17" r="39.17"/>
  <path class="cls-2" d="M6.03,41.01c-.49-.24-.54-.91-.08-1.21.83-.54,2.9-1.36,4.21-1.36,4.15,0,8.21,1,12.26,3.62,2.41,1.56,5.02,2.78,8.29,6.58.15.18.43.17.57,0,3.57-4.43,6.7-8.61,11.9-13.49,6.93-6.51,11.72-9.89,17.72-13.84,1.07-.83,6.04-2.42,8.37-2.57h.01c.35-.02.52.42.25.65-5.09,4.31-10.42,9.26-15.82,14.9-8.46,8.85-15.64,18.96-21.17,27.07-.5.73-1.56.77-2.11.08-3.2-4.01-7.29-9.58-13.01-13.67-4.04-2.89-7.93-5.09-11.39-6.76"/>
</svg>