<?xml version="1.0" encoding="UTF-8"?>
<svg id="Layer_1" xmlns="http://www.w3.org/2000/svg" viewBox="0 0 77.66 52.39">
  <defs>
    <style>
      .cls-1 {
        fill: #430541;
      }
    </style>
  </defs>
  <path class="cls-1" d="M.48,27.02c-.6-.29-.65-1.11-.1-1.47,1.01-.66,3.52-1.66,5.11-1.66,5.03,0,9.96,1.21,14.87,4.39,2.93,1.9,6.09,3.37,10.05,7.98.18.21.52.21.69,0,4.33-5.37,8.13-10.44,14.43-16.36,8.4-7.89,14.21-11.99,21.48-16.78C68.31,2.1,74.35.18,77.18,0h.01c.43-.03.64.51.31.79-6.17,5.23-12.64,11.23-19.19,18.07-10.26,10.73-18.96,23-25.67,32.83-.6.89-1.89.93-2.56.09-3.89-4.87-8.85-11.62-15.78-16.58-4.9-3.51-9.62-6.17-13.81-8.2"/>
</svg>