<?xml version="1.0" encoding="UTF-8"?>
<svg id="Layer_1" xmlns="http://www.w3.org/2000/svg" viewBox="0 0 75.4 61.35">
  <defs>
    <style>
      .cls-1 {
        fill: #430541;
      }
    </style>
  </defs>
  <path class="cls-1" d="M60.49,9.82c-4.26-3.05-11.17-7.14-21.09-9.66-.82-.21-1.67-.21-2.49,0-9.73,2.39-16.67,6.3-21.08,9.32-1.15.79-18.12,12.59-15.57,18.91.55,1.37,1.92,2.22,3.39,2.77.56.21,1.16.31,1.76.31h.87v27.05c0,1.57,1.27,2.84,2.84,2.84h20.84v-13.4c0-2.27,1.85-4.12,4.12-4.12h7.21c2.27,0,4.12,1.85,4.12,4.12v13.4h20.84c1.57,0,2.84-1.27,2.84-2.84v-27.05h.88c.6,0,1.19-.1,1.74-.31,1.43-.53,2.82-1.37,3.4-2.77,2.52-6.13-13.03-17.42-14.63-18.56Z"/>
</svg>