<?xml version="1.0" encoding="UTF-8"?>
<svg id="Layer_2" xmlns="http://www.w3.org/2000/svg" viewBox="0 0 321.42 202.82">
  <defs>
    <style>
      .cls-1 {
        fill: #773563;
        stroke: #35002b;
      }

      .cls-1, .cls-2, .cls-3, .cls-4, .cls-5, .cls-6, .cls-7 {
        stroke-miterlimit: 10;
      }

      .cls-1, .cls-2, .cls-5, .cls-6 {
        stroke-width: .25px;
      }

      .cls-2 {
        fill: #998675;
        stroke: #534741;
      }

      .cls-3 {
        fill: #abcd84;
      }

      .cls-3, .cls-4 {
        stroke: #439630;
      }

      .cls-3, .cls-4, .cls-7 {
        stroke-width: .5px;
      }

      .cls-4, .cls-7 {
        fill: none;
      }

      .cls-5 {
        fill: #4f8959;
        stroke: #375131;
      }

      .cls-6 {
        fill: #f18f4a;
        stroke: #91511a;
      }

      .cls-7 {
        stroke: #cbebb2;
      }
    </style>
  </defs>
  <g>
    <path class="cls-3" d="M204.03,138.05c1.88-.45,4.74-1.26,7.98-2.79,12.22-5.77,13.67-14.03,23.54-16.36,5.43-1.28,10.17,0,11.57.4,4.99,1.41,8.2,4.11,10.38,5.99,8.52,7.32,7.05,12.72,13.97,16.36,4.66,2.45,5.86.7,10.38,3.19,5.64,3.11,3.6,7.47,9.18,11.97,3.01,2.43,7.1,4.2,15.56,7.18,5.71,2.01,10.64,3.42,14.37,4.39-6.2,6.52-12.04,9.18-16.36,10.38-5.4,1.49-8.3.67-14.37,3.19-6.22,2.59-6.62,4.89-11.17,6.78-7.7,3.2-11.43-1.38-21.95-1.6-15.43-.31-18.53,9.33-30.73,6.78-1.33-.28-11.15-2.32-15.16-9.98-4.55-8.69,2.61-16.54-1.6-28.33-1.85-5.18-5.05-8.75-7.18-10.77.53-2.26,1.06-4.52,1.6-6.78Z"/>
    <path class="cls-7" d="M320.95,168.45c-4.1.73-9.54,1.45-15.96,1.6-2.39.06-7.88.1-15.56-.8-12.14-1.42-25.83-3.02-39.91-10.38-13.27-6.94-14.09-12.31-26.34-15.96-7.91-2.36-15.01-2.34-19.89-1.91"/>
    <path class="cls-7" d="M259.49,163.27c3.15-.35,5.38-1.26,6.78-2,4.72-2.45,6-5.82,11.57-10.77,2.33-2.07,4.41-3.53,5.73-4.4"/>
    <path class="cls-7" d="M211.73,140.89c11.53.88,18.68-1.88,23.15-4.76,4.75-3.06,7.85-7.09,14.37-8.38,4.49-.89,8.88-.06,11.57.8"/>
    <path class="cls-7" d="M209.61,140.8c.94.9,1.92,2.58,3.19,4.62,4.82,7.71,3.23,15.84,3.19,22.35-.03,6.07,1.25,14.53,7.57,25.43"/>
    <path class="cls-7" d="M223.98,143.15c1.79,1.15,4.27,3.11,6.78,5.75,1.52,1.59,4.52,5.03,6.78,9.98,4.79,10.46,1.15,16.47,6.78,25.14,1.22,1.88,2.45,3.71,3.19,4.47"/>
    <path class="cls-7" d="M249.52,158.88c1.83,1.23,4.48,3.38,6.38,6.78,2.47,4.41,1.79,7.5,3.59,12.37.98,2.66,2.92,6.62,7.18,10.57"/>
    <path class="cls-7" d="M291.82,169.51c.58.09,1.46.31,2.39.82,2.48,1.35,2.8,3.57,5.19,5.99,1.35,1.37,2.69,2.26,3.59,2.79"/>
    <path class="cls-7" d="M272.66,155.76c.55-1.77,1.11-3.33,1.6-4.47.21-.49,1.16-2.74,2.79-5.59.47-.83.89-1.83,1.2-2.31"/>
    <path class="cls-7" d="M238.17,133.74c1.29-.74,3.75-1.68,6.16-2.39,5.18-1.54,9.53-1.08,11.97-.8,1.81.21,4.31.64,7.14,1.59"/>
    <path class="cls-7" d="M224.78,140.2c5.88-1.96,8.59-4.88,9.98-7.22,2.15-3.65,1.41-6.58,3.99-9.58,2.42-2.81,6.04-3.69,8.78-3.99"/>
    <path class="cls-7" d="M240.41,170.05c-.05,1.61-.22,4.11-.47,7.18-.26,3.3-.46,4.47-.4,6.38.06,1.78.34,4.36,1.45,7.51"/>
    <path class="cls-7" d="M216.4,173.64c.3,1.66.92,4.14,2.39,6.78,1.5,2.7,2.93,3.85,5.59,7.18,1.22,1.53,2.94,3.81,4.79,6.78"/>
    <path class="cls-7" d="M216.28,160.27c-.24,1.22-.41,3.45-.68,5.39-.41,2.93-.38,3.81-.8,5.99-.59,3.08-.9,2.72-1.2,4.79-.45,3.13.03,5.7.4,7.58.27,1.37.64,3.03,1.36,4.87"/>
    <path class="cls-7" d="M255.9,165.66c.45.71,1.47,2.19,2,3.59.47,1.26.66,2.2.8,2.79,0,0,.53,2.31,2.39,5.99,1.58,3.12,6.28,7.79,13.17,11.77"/>
    <path class="cls-4" d="M203.9,138.03c1.88-.45,4.74-1.26,7.98-2.79,12.22-5.77,13.67-14.03,23.54-16.36,5.43-1.28,10.17,0,11.57.4,4.99,1.41,8.2,4.11,10.38,5.99,8.52,7.32,7.05,12.72,13.97,16.36,4.66,2.45,5.86.7,10.38,3.19,5.64,3.11,3.6,7.47,9.18,11.97,3.01,2.43,7.1,4.2,15.56,7.18,5.71,2.01,10.64,3.42,14.37,4.39-6.2,6.52-12.04,9.18-16.36,10.38-5.4,1.49-8.3.67-14.37,3.19-6.22,2.59-6.62,4.89-11.17,6.78-7.7,3.2-11.43-1.38-21.95-1.6-15.43-.31-18.53,9.33-30.73,6.78-1.33-.28-11.15-2.32-15.16-9.98-4.55-8.69,2.61-16.54-1.6-28.33-1.85-5.18-5.05-8.75-7.18-10.77.53-2.26,1.06-4.52,1.6-6.78Z"/>
  </g>
  <g>
    <path class="cls-3" d="M117.4,146.27c-1.88-.45-4.74-1.26-7.98-2.79-12.22-5.77-13.67-14.03-23.54-16.36-5.43-1.28-10.17,0-11.57.4-4.99,1.41-8.2,4.11-10.38,5.99-8.52,7.32-7.05,12.72-13.97,16.36-4.66,2.45-5.86.7-10.38,3.19-5.64,3.11-3.6,7.47-9.18,11.97-3.01,2.43-7.1,4.2-15.56,7.18-5.71,2.01-10.64,3.42-14.37,4.39,6.2,6.52,12.04,9.18,16.36,10.38,5.4,1.49,8.3.67,14.37,3.19,6.22,2.59,6.62,4.89,11.17,6.78,7.7,3.2,11.43-1.38,21.95-1.6,15.43-.31,18.53,9.33,30.73,6.78,1.33-.28,11.15-2.32,15.16-9.98,4.55-8.69-2.61-16.54,1.6-28.33,1.85-5.18,5.05-8.75,7.18-10.77-.53-2.26-1.06-4.52-1.6-6.78Z"/>
    <path class="cls-7" d="M.47,176.68c4.1.73,9.54,1.45,15.96,1.6,2.39.06,7.88.1,15.56-.8,12.14-1.42,25.83-3.02,39.91-10.38,13.27-6.94,14.09-12.31,26.34-15.96,7.91-2.36,15.01-2.34,19.89-1.91"/>
    <path class="cls-7" d="M61.93,171.49c-3.15-.35-5.38-1.26-6.78-2-4.72-2.45-6-5.82-11.57-10.77-2.33-2.07-4.41-3.53-5.73-4.4"/>
    <path class="cls-7" d="M109.69,149.11c-11.53.88-18.68-1.88-23.15-4.76-4.75-3.06-7.85-7.09-14.37-8.38-4.49-.89-8.88-.06-11.57.8"/>
    <path class="cls-7" d="M111.81,149.03c-.94.9-1.92,2.58-3.19,4.62-4.82,7.71-3.23,15.84-3.19,22.35.03,6.07-1.25,14.53-7.57,25.43"/>
    <path class="cls-7" d="M97.44,151.38c-1.79,1.15-4.27,3.11-6.78,5.75-1.52,1.59-4.52,5.03-6.78,9.98-4.79,10.46-1.15,16.47-6.78,25.14-1.22,1.88-2.45,3.71-3.19,4.47"/>
    <path class="cls-7" d="M71.9,167.1c-1.83,1.23-4.48,3.38-6.38,6.78-2.47,4.41-1.79,7.5-3.59,12.37-.98,2.66-2.92,6.62-7.18,10.57"/>
    <path class="cls-7" d="M29.6,177.74c-.58.09-1.46.31-2.39.82-2.48,1.35-2.8,3.57-5.19,5.99-1.35,1.37-2.69,2.26-3.59,2.79"/>
    <path class="cls-7" d="M48.76,163.99c-.55-1.77-1.11-3.33-1.6-4.47-.21-.49-1.16-2.74-2.79-5.59-.47-.83-.89-1.83-1.2-2.31"/>
    <path class="cls-7" d="M83.25,141.96c-1.29-.74-3.75-1.68-6.16-2.39-5.18-1.54-9.53-1.08-11.97-.8-1.81.21-4.31.64-7.14,1.59"/>
    <path class="cls-7" d="M96.65,148.43c-5.88-1.96-8.59-4.88-9.98-7.22-2.15-3.65-1.41-6.58-3.99-9.58-2.42-2.81-6.04-3.69-8.78-3.99"/>
    <path class="cls-7" d="M81.01,178.28c.05,1.61.22,4.11.47,7.18.26,3.3.46,4.47.4,6.38-.06,1.78-.34,4.36-1.45,7.51"/>
    <path class="cls-7" d="M105.03,181.87c-.3,1.66-.92,4.14-2.39,6.78-1.5,2.7-2.93,3.85-5.59,7.18-1.22,1.53-2.94,3.81-4.79,6.78"/>
    <path class="cls-7" d="M105.15,168.5c.24,1.22.41,3.45.68,5.39.41,2.93.38,3.81.8,5.99.59,3.08.9,2.72,1.2,4.79.45,3.13-.03,5.7-.4,7.58-.27,1.37-.64,3.03-1.36,4.87"/>
    <path class="cls-7" d="M65.52,173.89c-.45.71-1.47,2.19-2,3.59-.47,1.26-.66,2.2-.8,2.79,0,0-.53,2.31-2.39,5.99-1.58,3.12-6.28,7.79-13.17,11.77"/>
    <path class="cls-4" d="M117.53,146.25c-1.88-.45-4.74-1.26-7.98-2.79-12.22-5.77-13.67-14.03-23.54-16.36-5.43-1.28-10.17,0-11.57.4-4.99,1.41-8.2,4.11-10.38,5.99-8.52,7.32-7.05,12.72-13.97,16.36-4.66,2.45-5.86.7-10.38,3.19-5.64,3.11-3.6,7.47-9.18,11.97-3.01,2.43-7.1,4.2-15.56,7.18-5.71,2.01-10.64,3.42-14.37,4.39,6.2,6.52,12.04,9.18,16.36,10.38,5.4,1.49,8.3.67,14.37,3.19,6.22,2.59,6.62,4.89,11.17,6.78,7.7,3.2,11.43-1.38,21.95-1.6,15.43-.31,18.53,9.33,30.73,6.78,1.33-.28,11.15-2.32,15.16-9.98,4.55-8.69-2.61-16.54,1.6-28.33,1.85-5.18,5.05-8.75,7.18-10.77-.53-2.26-1.06-4.52-1.6-6.78Z"/>
  </g>
  <path class="cls-6" d="M145.6,85.04c1.11-1.92,4.27-6.79,10.55-9.64,6.33-2.87,12.07-1.98,15.07-1.48,7.15,1.2,12.03,4.75,14.32,6.67,4.13,4.46,19.25,21.88,19.59,48.19.25,19.31-7.59,33.45-11.3,39.29-2.29,3.29-10.84,14.69-25.62,17.05-3.57.57-13.77,2.2-20.35-3.71-2.17-1.95-3.95-4.73-6.03-20.02-1.08-8-2.37-17.79-2.26-32.62.06-7.64.13-14.52,1.51-23.72,1.22-8.19,2.99-15,4.52-20.02Z"/>
  <path class="cls-6" d="M167.32,72.44c1.98-1.48,3.95-2.97,5.93-4.45,3.72-1.29,10.32-3.02,18.53-2.22,10.66,1.03,18.15,5.74,21.5,8.15,3.64,2.6,22.83,16.84,25.95,42.26,1.69,13.73-2.05,24.77-4.45,30.39-4.07,6.32-10.51,14.37-20.02,20.76-7.09,4.76-12.38,6.24-14.09,6.67-5.03,1.29-9.13.78-12.11.62,1.89-2.15,22.68-26.47,14.34-59.18-7.4-29.01-32.09-41.33-35.58-43Z"/>
  <path class="cls-6" d="M173.25,67.99l.37-1.85c-4.15-.65-3.12-.27-4.45-.74-1.96-.69-3.47-1.52-4.45-2.22,1.28-1.98,3.18-4.41,5.93-6.67,6.27-5.17,13.09-6.34,16.31-6.67,2.43.28,5.18.74,8.15,1.48,3.4.86,6.38,1.91,8.9,2.97,3.82,1.54,8.87,4.05,14.09,8.15,4.24,3.34,7.39,6.78,9.64,9.64,2.24,3.18,4.53,6.88,6.67,11.12,4.62,9.15,6.94,17.72,8.15,24.46,0,2.04-.16,4.57-.74,7.41-.54,2.62-1.3,4.85-2.04,6.63-.14-2.27-2.52-33.56-29.09-48.15-16.17-8.87-32.16-6.56-37.44-5.56Z"/>
  <path class="cls-6" d="M146.57,83.62c-.17-.91-1.17-1.66-1.79-2.91-1.14-2.28-2.72-3.7-3.71-4.45-3.36-1.99-8.93-4.73-16.31-5.93-6.11-.99-11.29-.57-14.83,0-3.14,1.02-7.4,2.79-11.86,5.93-3.59,2.53-6.26,5.21-8.15,7.41-3.62,4.18-9.33,11.87-12.6,22.98-3.09,10.51-2.52,19.06-2.22,22.98.63,8.22,2.74,15.57,5.45,21.89,4.65,10.87,11.04,18.67,14.57,22.59,6.68,4.68,12.76,7.35,17.05,8.9,5.45,1.97,9.11,3.25,14.09,2.97,2.72-.15,4.02-.67,11.12-2.22,4.5-.98,8.17-1.69,10.53-2.13-3.88-11.42-7.99-29.6-8.3-50.5-.3-19.65,3.74-36.28,6.98-47.5Z"/>
  <path class="cls-6" d="M120.21,70.46c.54-.95.74-1.61,2.22-2.97,2.66-2.42,4.98-2.75,8.15-4.45,1.72-.92,4.13-2.48,6.67-5.19-.23-.27-.48-.56-.76-.87-1.85-2.03-4.75-4.65-8.88-6.55-.9-.42-1.81-.77-2.7-1.07-10-3.33-19.11.3-21.02,1.07-5.05,2.01-8.7,4.98-11.12,7.41-3.51,1.38-13.16,5.7-20.02,16.31-5.75,8.9-6.55,17.62-6.67,21.5-2.94,11.63-2.8,21.22-2.22,27.43.62,6.68,1.23,12.47,5.19,18.53,3.85,5.89,8.86,9.35,12.01,10.99-2.84-6.85-7.29-20.9-4.6-37.68.75-4.69,2.35-14.02,8.9-23.72,4.34-6.44,9.01-10.28,11.86-12.6,4.36-3.54,7.89-6.34,13.34-7.41,3.69-.73,7.6-1.12,9.64-.74Z"/>
  <path class="cls-6" d="M164.73,63.17c1.26-1.86,3.14-4.23,5.84-6.55,2.51-2.16,5.07-3.44,7-4.4-.36-.52-3.05-4.27-7.65-4.61-2.92-.22-5.1.97-5.93,1.48-3.33-1.05-7.88-2.09-13.34-2.22-3.71-.09-6.97.26-9.64.74-1.64-.66-7.75-2.92-13.34,0-1.05.55-1.95,1.21-2.7,1.9,3.86,2.54,7.72,5.07,11.58,7.61,3.44,1.1,7.16,2.16,11.14,3.09,6.12,1.44,11.84,2.37,17.05,2.97Z"/>
  <path class="cls-2" d="M120.25,70.59c.06-.1.12-.25.19-.42.56-1.45,1.53-2.69,2.84-3.53.27-.17,3.11-1.87,3.3-2.01,4-3,3.49-2.41,6.28-4.41,1.25-.9,3.11-2.35,5.19-4.45,2.51-2.54,8.25-9.04,10.38-19.27,1.72-8.3.25-15.12-.74-18.53-.08-1.59-.39-3.98-1.48-6.67-1.13-2.76-2.63-4.73-3.71-5.93,1.03-2.86,3.31-4.9,5.93-5.19,1.65-.18,2.99.37,3.71.74,2.22,4.45,4.45,8.9,6.67,13.34,3.79,14.09,4.19,21.62,3.71,25.95-.14,1.25-.78,6.16,0,12.6.22,1.83.34,2.93.74,4.45.63,2.4,1.04,3.94,2.32,5.38,2.12,2.37,5,3,5,3,1.34.29,3,0,3,0,.39.62.2,1.73,0,2.3-1.36,1.4-2.22,1.63-3,2.7-.91,1.24-.99,2.53-1,3-1.22-.19-4.18-.41-6.32-.07-.77.12-3.61.64-8.15,3.71-2.24,1.51-5.38,2.55-8.52,6.36-.66-1.61-1.88-2.58-4.08-4.88-3.28-3.43-6.91-4.71-10.38-5.93-2.65-.93-6.7-2.04-11.86-2.22Z"/>
  <path class="cls-1" d="M167.46,168.47c-.13,2.42-.17,9.49,4.55,16.18,7.18,10.18,19.24,10.82,20.73,10.87,4.99.21,12.6-.04,21.24-2.78,14.55-4.62,23.28-13.54,30.09-20.48,12.63-12.89,18.28-25.55,19.97-29.58,4.83-11.53,10.23-24.4,4.05-32.36-4.3-5.53-12.76-6.84-18.96-5.82-10.26,1.69-12.48,9.46-23.01,18.71-21.34,18.75-40.74,11.95-52.84,30.34-3.8,5.77-5.21,11.49-5.82,14.92Z"/>
  <g>
    <path class="cls-3" d="M204.03,138.05c1.88-.45,4.74-1.26,7.98-2.79,12.22-5.77,13.67-14.03,23.54-16.36,5.43-1.28,10.17,0,11.57.4,4.99,1.41,8.2,4.11,10.38,5.99,8.52,7.32,7.05,12.72,13.97,16.36,4.66,2.45,5.86.7,10.38,3.19,5.64,3.11,3.6,7.47,9.18,11.97,3.01,2.43,7.1,4.2,15.56,7.18,5.71,2.01,10.64,3.42,14.37,4.39-6.2,6.52-12.04,9.18-16.36,10.38-5.4,1.49-8.3.67-14.37,3.19-6.22,2.59-6.62,4.89-11.17,6.78-7.7,3.2-11.43-1.38-21.95-1.6-15.43-.31-18.53,9.33-30.73,6.78-1.33-.28-11.15-2.32-15.16-9.98-4.55-8.69,2.61-16.54-1.6-28.33-1.85-5.18-5.05-8.75-7.18-10.77.53-2.26,1.06-4.52,1.6-6.78Z"/>
    <path class="cls-7" d="M320.95,168.45c-4.1.73-9.54,1.45-15.96,1.6-2.39.06-7.88.1-15.56-.8-12.14-1.42-25.83-3.02-39.91-10.38-13.27-6.94-14.09-12.31-26.34-15.96-7.91-2.36-15.01-2.34-19.89-1.91"/>
    <path class="cls-7" d="M259.49,163.27c3.15-.35,5.38-1.26,6.78-2,4.72-2.45,6-5.82,11.57-10.77,2.33-2.07,4.41-3.53,5.73-4.4"/>
    <path class="cls-7" d="M211.73,140.89c11.53.88,18.68-1.88,23.15-4.76,4.75-3.06,7.85-7.09,14.37-8.38,4.49-.89,8.88-.06,11.57.8"/>
    <path class="cls-7" d="M209.61,140.8c.94.9,1.92,2.58,3.19,4.62,4.82,7.71,3.23,15.84,3.19,22.35-.03,6.07,1.25,14.53,7.57,25.43"/>
    <path class="cls-7" d="M223.98,143.15c1.79,1.15,4.27,3.11,6.78,5.75,1.52,1.59,4.52,5.03,6.78,9.98,4.79,10.46,1.15,16.47,6.78,25.14,1.22,1.88,2.45,3.71,3.19,4.47"/>
    <path class="cls-7" d="M249.52,158.88c1.83,1.23,4.48,3.38,6.38,6.78,2.47,4.41,1.79,7.5,3.59,12.37.98,2.66,2.92,6.62,7.18,10.57"/>
    <path class="cls-7" d="M291.82,169.51c.58.09,1.46.31,2.39.82,2.48,1.35,2.8,3.57,5.19,5.99,1.35,1.37,2.69,2.26,3.59,2.79"/>
    <path class="cls-7" d="M272.66,155.76c.55-1.77,1.11-3.33,1.6-4.47.21-.49,1.16-2.74,2.79-5.59.47-.83.89-1.83,1.2-2.31"/>
    <path class="cls-7" d="M238.17,133.74c1.29-.74,3.75-1.68,6.16-2.39,5.18-1.54,9.53-1.08,11.97-.8,1.81.21,4.31.64,7.14,1.59"/>
    <path class="cls-7" d="M224.78,140.2c5.88-1.96,8.59-4.88,9.98-7.22,2.15-3.65,1.41-6.58,3.99-9.58,2.42-2.81,6.04-3.69,8.78-3.99"/>
    <path class="cls-7" d="M240.41,170.05c-.05,1.61-.22,4.11-.47,7.18-.26,3.3-.46,4.47-.4,6.38.06,1.78.34,4.36,1.45,7.51"/>
    <path class="cls-7" d="M216.4,173.64c.3,1.66.92,4.14,2.39,6.78,1.5,2.7,2.93,3.85,5.59,7.18,1.22,1.53,2.94,3.81,4.79,6.78"/>
    <path class="cls-7" d="M216.28,160.27c-.24,1.22-.41,3.45-.68,5.39-.41,2.93-.38,3.81-.8,5.99-.59,3.08-.9,2.72-1.2,4.79-.45,3.13.03,5.7.4,7.58.27,1.37.64,3.03,1.36,4.87"/>
    <path class="cls-7" d="M255.9,165.66c.45.71,1.47,2.19,2,3.59.47,1.26.66,2.2.8,2.79,0,0,.53,2.31,2.39,5.99,1.58,3.12,6.28,7.79,13.17,11.77"/>
    <path class="cls-4" d="M203.9,138.03c1.88-.45,4.74-1.26,7.98-2.79,12.22-5.77,13.67-14.03,23.54-16.36,5.43-1.28,10.17,0,11.57.4,4.99,1.41,8.2,4.11,10.38,5.99,8.52,7.32,7.05,12.72,13.97,16.36,4.66,2.45,5.86.7,10.38,3.19,5.64,3.11,3.6,7.47,9.18,11.97,3.01,2.43,7.1,4.2,15.56,7.18,5.71,2.01,10.64,3.42,14.37,4.39-6.2,6.52-12.04,9.18-16.36,10.38-5.4,1.49-8.3.67-14.37,3.19-6.22,2.59-6.62,4.89-11.17,6.78-7.7,3.2-11.43-1.38-21.95-1.6-15.43-.31-18.53,9.33-30.73,6.78-1.33-.28-11.15-2.32-15.16-9.98-4.55-8.69,2.61-16.54-1.6-28.33-1.85-5.18-5.05-8.75-7.18-10.77.53-2.26,1.06-4.52,1.6-6.78Z"/>
  </g>
  <g>
    <path class="cls-3" d="M117.4,146.27c-1.88-.45-4.74-1.26-7.98-2.79-12.22-5.77-13.67-14.03-23.54-16.36-5.43-1.28-10.17,0-11.57.4-4.99,1.41-8.2,4.11-10.38,5.99-8.52,7.32-7.05,12.72-13.97,16.36-4.66,2.45-5.86.7-10.38,3.19-5.64,3.11-3.6,7.47-9.18,11.97-3.01,2.43-7.1,4.2-15.56,7.18-5.71,2.01-10.64,3.42-14.37,4.39,6.2,6.52,12.04,9.18,16.36,10.38,5.4,1.49,8.3.67,14.37,3.19,6.22,2.59,6.62,4.89,11.17,6.78,7.7,3.2,11.43-1.38,21.95-1.6,15.43-.31,18.53,9.33,30.73,6.78,1.33-.28,11.15-2.32,15.16-9.98,4.55-8.69-2.61-16.54,1.6-28.33,1.85-5.18,5.05-8.75,7.18-10.77-.53-2.26-1.06-4.52-1.6-6.78Z"/>
    <path class="cls-7" d="M.47,176.68c4.1.73,9.54,1.45,15.96,1.6,2.39.06,7.88.1,15.56-.8,12.14-1.42,25.83-3.02,39.91-10.38,13.27-6.94,14.09-12.31,26.34-15.96,7.91-2.36,15.01-2.34,19.89-1.91"/>
    <path class="cls-7" d="M61.93,171.49c-3.15-.35-5.38-1.26-6.78-2-4.72-2.45-6-5.82-11.57-10.77-2.33-2.07-4.41-3.53-5.73-4.4"/>
    <path class="cls-7" d="M109.69,149.11c-11.53.88-18.68-1.88-23.15-4.76-4.75-3.06-7.85-7.09-14.37-8.38-4.49-.89-8.88-.06-11.57.8"/>
    <path class="cls-7" d="M111.81,149.03c-.94.9-1.92,2.58-3.19,4.62-4.82,7.71-3.23,15.84-3.19,22.35.03,6.07-1.25,14.53-7.57,25.43"/>
    <path class="cls-7" d="M97.44,151.38c-1.79,1.15-4.27,3.11-6.78,5.75-1.52,1.59-4.52,5.03-6.78,9.98-4.79,10.46-1.15,16.47-6.78,25.14-1.22,1.88-2.45,3.71-3.19,4.47"/>
    <path class="cls-7" d="M71.9,167.1c-1.83,1.23-4.48,3.38-6.38,6.78-2.47,4.41-1.79,7.5-3.59,12.37-.98,2.66-2.92,6.62-7.18,10.57"/>
    <path class="cls-7" d="M29.6,177.74c-.58.09-1.46.31-2.39.82-2.48,1.35-2.8,3.57-5.19,5.99-1.35,1.37-2.69,2.26-3.59,2.79"/>
    <path class="cls-7" d="M48.76,163.99c-.55-1.77-1.11-3.33-1.6-4.47-.21-.49-1.16-2.74-2.79-5.59-.47-.83-.89-1.83-1.2-2.31"/>
    <path class="cls-7" d="M83.25,141.96c-1.29-.74-3.75-1.68-6.16-2.39-5.18-1.54-9.53-1.08-11.97-.8-1.81.21-4.31.64-7.14,1.59"/>
    <path class="cls-7" d="M96.65,148.43c-5.88-1.96-8.59-4.88-9.98-7.22-2.15-3.65-1.41-6.58-3.99-9.58-2.42-2.81-6.04-3.69-8.78-3.99"/>
    <path class="cls-7" d="M81.01,178.28c.05,1.61.22,4.11.47,7.18.26,3.3.46,4.47.4,6.38-.06,1.78-.34,4.36-1.45,7.51"/>
    <path class="cls-7" d="M105.03,181.87c-.3,1.66-.92,4.14-2.39,6.78-1.5,2.7-2.93,3.85-5.59,7.18-1.22,1.53-2.94,3.81-4.79,6.78"/>
    <path class="cls-7" d="M105.15,168.5c.24,1.22.41,3.45.68,5.39.41,2.93.38,3.81.8,5.99.59,3.08.9,2.72,1.2,4.79.45,3.13-.03,5.7-.4,7.58-.27,1.37-.64,3.03-1.36,4.87"/>
    <path class="cls-7" d="M65.52,173.89c-.45.71-1.47,2.19-2,3.59-.47,1.26-.66,2.2-.8,2.79,0,0-.53,2.31-2.39,5.99-1.58,3.12-6.28,7.79-13.17,11.77"/>
    <path class="cls-4" d="M117.53,146.25c-1.88-.45-4.74-1.26-7.98-2.79-12.22-5.77-13.67-14.03-23.54-16.36-5.43-1.28-10.17,0-11.57.4-4.99,1.41-8.2,4.11-10.38,5.99-8.52,7.32-7.05,12.72-13.97,16.36-4.66,2.45-5.86.7-10.38,3.19-5.64,3.11-3.6,7.47-9.18,11.97-3.01,2.43-7.1,4.2-15.56,7.18-5.71,2.01-10.64,3.42-14.37,4.39,6.2,6.52,12.04,9.18,16.36,10.38,5.4,1.49,8.3.67,14.37,3.19,6.22,2.59,6.62,4.89,11.17,6.78,7.7,3.2,11.43-1.38,21.95-1.6,15.43-.31,18.53,9.33,30.73,6.78,1.33-.28,11.15-2.32,15.16-9.98,4.55-8.69-2.61-16.54,1.6-28.33,1.85-5.18,5.05-8.75,7.18-10.77-.53-2.26-1.06-4.52-1.6-6.78Z"/>
  </g>
  <path class="cls-6" d="M145.6,85.04c1.11-1.92,4.27-6.79,10.55-9.64,6.33-2.87,12.07-1.98,15.07-1.48,7.15,1.2,12.03,4.75,14.32,6.67,4.13,4.46,19.25,21.88,19.59,48.19.25,19.31-7.59,33.45-11.3,39.29-2.29,3.29-10.84,14.69-25.62,17.05-3.57.57-13.77,2.2-20.35-3.71-2.17-1.95-3.95-4.73-6.03-20.02-1.08-8-2.37-17.79-2.26-32.62.06-7.64.13-14.52,1.51-23.72,1.22-8.19,2.99-15,4.52-20.02Z"/>
  <path class="cls-6" d="M167.32,72.44c1.98-1.48,3.95-2.97,5.93-4.45,3.72-1.29,10.32-3.02,18.53-2.22,10.66,1.03,18.15,5.74,21.5,8.15,3.64,2.6,22.83,16.84,25.95,42.26,1.69,13.73-2.05,24.77-4.45,30.39-4.07,6.32-10.51,14.37-20.02,20.76-7.09,4.76-12.38,6.24-14.09,6.67-5.03,1.29-9.13.78-12.11.62,1.89-2.15,22.68-26.47,14.34-59.18-7.4-29.01-32.09-41.33-35.58-43Z"/>
  <path class="cls-6" d="M173.25,67.99l.37-1.85c-4.15-.65-3.12-.27-4.45-.74-1.96-.69-3.47-1.52-4.45-2.22,1.28-1.98,3.18-4.41,5.93-6.67,6.27-5.17,13.09-6.34,16.31-6.67,2.43.28,5.18.74,8.15,1.48,3.4.86,6.38,1.91,8.9,2.97,3.82,1.54,8.87,4.05,14.09,8.15,4.24,3.34,7.39,6.78,9.64,9.64,2.24,3.18,4.53,6.88,6.67,11.12,4.62,9.15,6.94,17.72,8.15,24.46,0,2.04-.16,4.57-.74,7.41-.54,2.62-1.3,4.85-2.04,6.63-.14-2.27-2.52-33.56-29.09-48.15-16.17-8.87-32.16-6.56-37.44-5.56Z"/>
  <path class="cls-6" d="M146.57,83.62c-.17-.91-1.17-1.66-1.79-2.91-1.14-2.28-2.72-3.7-3.71-4.45-3.36-1.99-8.93-4.73-16.31-5.93-6.11-.99-11.29-.57-14.83,0-3.14,1.02-7.4,2.79-11.86,5.93-3.59,2.53-6.26,5.21-8.15,7.41-3.62,4.18-9.33,11.87-12.6,22.98-3.09,10.51-2.52,19.06-2.22,22.98.63,8.22,2.74,15.57,5.45,21.89,4.65,10.87,11.04,18.67,14.57,22.59,6.68,4.68,12.76,7.35,17.05,8.9,5.45,1.97,9.11,3.25,14.09,2.97,2.72-.15,4.02-.67,11.12-2.22,4.5-.98,8.17-1.69,10.53-2.13-3.88-11.42-7.99-29.6-8.3-50.5-.3-19.65,3.74-36.28,6.98-47.5Z"/>
  <path class="cls-6" d="M120.21,70.46c.54-.95.74-1.61,2.22-2.97,2.66-2.42,4.98-2.75,8.15-4.45,1.72-.92,4.13-2.48,6.67-5.19-.23-.27-.48-.56-.76-.87-1.85-2.03-4.75-4.65-8.88-6.55-.9-.42-1.81-.77-2.7-1.07-10-3.33-19.11.3-21.02,1.07-5.05,2.01-8.7,4.98-11.12,7.41-3.51,1.38-13.16,5.7-20.02,16.31-5.75,8.9-6.55,17.62-6.67,21.5-2.94,11.63-2.8,21.22-2.22,27.43.62,6.68,1.23,12.47,5.19,18.53,3.85,5.89,8.86,9.35,12.01,10.99-2.84-6.85-7.29-20.9-4.6-37.68.75-4.69,2.35-14.02,8.9-23.72,4.34-6.44,9.01-10.28,11.86-12.6,4.36-3.54,7.89-6.34,13.34-7.41,3.69-.73,7.6-1.12,9.64-.74Z"/>
  <path class="cls-6" d="M164.73,63.17c1.26-1.86,3.14-4.23,5.84-6.55,2.51-2.16,5.07-3.44,7-4.4-.36-.52-3.05-4.27-7.65-4.61-2.92-.22-5.1.97-5.93,1.48-3.33-1.05-7.88-2.09-13.34-2.22-3.71-.09-6.97.26-9.64.74-1.64-.66-7.75-2.92-13.34,0-1.05.55-1.95,1.21-2.7,1.9,3.86,2.54,7.72,5.07,11.58,7.61,3.44,1.1,7.16,2.16,11.14,3.09,6.12,1.44,11.84,2.37,17.05,2.97Z"/>
  <path class="cls-2" d="M120.25,70.59c.06-.1.12-.25.19-.42.56-1.45,1.53-2.69,2.84-3.53.27-.17,3.11-1.87,3.3-2.01,4-3,3.49-2.41,6.28-4.41,1.25-.9,3.11-2.35,5.19-4.45,2.51-2.54,8.25-9.04,10.38-19.27,1.72-8.3.25-15.12-.74-18.53-.08-1.59-.39-3.98-1.48-6.67-1.13-2.76-2.63-4.73-3.71-5.93,1.03-2.86,3.31-4.9,5.93-5.19,1.65-.18,2.99.37,3.71.74,2.22,4.45,4.45,8.9,6.67,13.34,3.79,14.09,4.19,21.62,3.71,25.95-.14,1.25-.78,6.16,0,12.6.22,1.83.34,2.93.74,4.45.63,2.4,1.04,3.94,2.32,5.38,2.12,2.37,5,3,5,3,1.34.29,3,0,3,0,.39.62.2,1.73,0,2.3-1.36,1.4-2.22,1.63-3,2.7-.91,1.24-.99,2.53-1,3-1.22-.19-4.18-.41-6.32-.07-.77.12-3.61.64-8.15,3.71-2.24,1.51-5.38,2.55-8.52,6.36-.66-1.61-1.88-2.58-4.08-4.88-3.28-3.43-6.91-4.71-10.38-5.93-2.65-.93-6.7-2.04-11.86-2.22Z"/>
  <path class="cls-1" d="M167.46,168.47c-.13,2.42-.17,9.49,4.55,16.18,7.18,10.18,19.24,10.82,20.73,10.87,4.99.21,12.6-.04,21.24-2.78,14.55-4.62,23.28-13.54,30.09-20.48,12.63-12.89,18.28-25.55,19.97-29.58,4.83-11.53,10.23-24.4,4.05-32.36-4.3-5.53-12.76-6.84-18.96-5.82-10.26,1.69-12.48,9.46-23.01,18.71-21.34,18.75-40.74,11.95-52.84,30.34-3.8,5.77-5.21,11.49-5.82,14.92Z"/>
  <path class="cls-5" d="M256.47,101.96c-4.04,1.11-6.06,1.67-8.6,1.77-1.88.07-3.02-.1-4.8.51-.66.22-2.02.76-3.79,2.28-3.91,3.33-6.48,8.54-7.33,10.37,1.99-3.07,3.92-4,5.31-4.3,1.64-.35,2.09.29,3.79-.25,2.76-.88,4.79-3.59,4.82-3.56,0,0-.01.02-.01.02-.14.16-1.21,1.84-1.77,4.3-.63,2.75-.14,4.37-.51,9.1-.08,1.1-.19,1.98-.25,2.53.49-.43,1.27-1.07,2.28-1.77,3.42-2.38,5.65-2.76,7.84-4.05,1.63-.96,3.76-2.73,5.56-6.32-1.77,3.12-1.79,5.37-1.52,6.83.49,2.59,2.17,3.91,3.79,8.6.37,1.08.62,1.97.76,2.53.28-.7.71-1.76,1.26-3.03,1.65-3.8,2.43-4.94,3.03-6.57.63-1.68,1.21-4.24.76-7.84.08.4.18,1.02.25,1.77.15,1.61.02,2.67,0,3.29-.1,2.91,1.86,3.67,2.28,6.83.13.99.14,2.44-.51,4.3.92-1.81,1.92-4.39,2.28-7.59.19-1.71.45-4.27-.51-7.33-.31-1.01-.73-2.34-1.77-3.79-.93-1.29-2.33-2.64-3.79-4.05-1.31-1.26-1.75-1.61-1.77-2.28-.03-.7.46-1.26,2.02-2.78,2.07-2.01,2.64-2,3.54-3.03.21-.24,2.88-3.42,1.52-6.57-.91-2.12-3.29-3.41-5.56-3.29-2.31.13-3.72,1.67-4.05,2.02-.65.71-1.78,2.29-1.26,3.03.33.48,1.31.55,2.02.25,1.36-.56,1.08-2.16,2.28-2.78,1.24-.64,3.45.09,4.05,1.52.49,1.17-.25,2.43-.76,3.29-.53.9-1.49,2.1-4.05,3.54-.71.4-2.57,1.35-6.83,2.53Z"/>
</svg>