<?xml version="1.0" encoding="UTF-8"?>
<svg id="Layer_1" xmlns="http://www.w3.org/2000/svg" viewBox="0 0 46.91 66.4">
  <defs>
    <style>
      .cls-1 {
        fill: #430541;
      }

      .cls-2 {
        fill: none;
        stroke: #fff;
        stroke-miterlimit: 10;
      }

      .cls-3 {
        fill: #b3b3b3;
      }
    </style>
  </defs>
  <path class="cls-1" d="M46.91,23.46C46.91,10.5,36.41,0,23.46,0S0,10.5,0,23.46c0,7.47,3.5,14.13,8.94,18.42,1.17,1.37,2.52,3.38,3.38,6.12.32,1.03.52,2.01.64,2.89h20.92c.16-.8.37-1.65.64-2.53.73-2.36,1.7-4.32,2.67-5.9,5.88-4.26,9.71-11.18,9.71-19Z"/>
  <path class="cls-2" d="M17.86,50.7c-.13-.53-3.26-16.58-1.8-19.49.72-1.44,1.74-2.6,1.08-4.33-.35-.93-1.18-1.49-1.8-1.8-1.29-.43-2.65.06-3.25,1.08-.68,1.16-.04,2.44,0,2.53,0,0,.43,1.12,1.44,1.8,2.29,1.55,6.89.32,8.3-2.53.44-.88.93-2.66,0-3.61-.58-.59-1.69-.83-2.53-.36-1.06.58-1.08,1.93-1.08,2.16,0,2.03,2.37,3.17,2.53,3.25,1.21.57,2.36.45,2.89.36,1.54-.18,2.63-.71,3.25-1.08.8-.48,1.53-.92,1.8-1.8.05-.17.38-1.29-.36-2.17-.51-.61-1.34-.88-2.17-.72-.14.03-.98.25-1.44,1.08-.58,1.04-.04,2.09,0,2.17.22.29.57.7,1.08,1.08,1.01.77,2.01.98,2.53,1.08.56.11,2.22.42,3.97-.36.54-.25,1.32-.61,1.8-1.44.15-.26.44-.78.36-1.44-.09-.8-.67-1.53-1.44-1.8-.97-.34-2.01.12-2.53.72-1.1,1.29-.2,3.72,0,4.33.9,2.72-1.8,20.57-1.8,21.29"/>
  <path class="cls-3" d="M33.33,56.44H13.29c-1.51,0-2.75-1.24-2.75-2.75v-.41c0-1.51,1.24-2.75,2.75-2.75h20.04c1.51,0,2.75,1.24,2.75,2.75v.41c0,1.51-1.24,2.75-2.75,2.75"/>
  <path class="cls-3" d="M33.33,61.42H13.29c-1.51,0-2.75-1.24-2.75-2.75v-.41c0-1.51,1.24-2.75,2.75-2.75h20.04c1.51,0,2.75,1.24,2.75,2.75v.41c0,1.51-1.24,2.75-2.75,2.75"/>
  <path class="cls-3" d="M23.31,66.4c-1.41-.18-4.98-.77-8.09-2.75-2.66-1.69-3.62-3.54-3.98-4.41h24.14c-.36.87-1.32,2.72-3.98,4.41-3.11,1.98-6.68,2.57-8.09,2.75"/>
</svg>